<svg id="Capa_1" enable-background="new 0 0 512 512" height="512" viewBox="0 0 512 512" width="512" xmlns="http://www.w3.org/2000/svg"><path d="m473.67 407.48v-302.96c22.12-6.5 38.33-26.99 38.33-51.19 0-29.41-23.93-53.33-53.33-53.33-24.21 0-44.7 16.2-51.19 38.33-4.545 0-298.386 0-302.96 0-6.49-22.13-26.98-38.33-51.19-38.33-29.4 0-53.33 23.92-53.33 53.33 0 24.2 16.21 44.69 38.33 51.19v302.96c-22.12 6.5-38.33 26.99-38.33 51.19 0 29.41 23.93 53.33 53.33 53.33 24.21 0 44.7-16.2 51.19-38.33h302.96c6.49 22.13 26.98 38.33 51.19 38.33 29.4 0 53.33-23.92 53.33-53.33 0-24.2-16.21-44.69-38.33-51.19zm-66.19 36.19h-302.96c-5.09-17.37-18.82-31.1-36.19-36.19v-128.98h188.958l94.166 94.167h-38.527c-8.284 0-15 6.716-15 15s6.716 15 15 15h74.74c8.309 0 14.974-6.773 14.998-14.956 0-.015.002-.029.002-.044v-74.74c0-8.284-6.716-15-15-15s-15 6.716-15 15v38.527l-94.167-94.167v-188.957h128.98c5.09 17.37 18.82 31.1 36.19 36.19v302.96c-17.37 5.09-31.1 18.82-36.19 36.19zm74.52-390.34c0 12.872-10.471 23.34-23.33 23.34-19.641 0-30.684-23.115-17.86-38.34 13.961-16.604 41.19-6.712 41.19 15zm-233.5 195.17h-180.17v-143.98c17.37-5.09 31.1-18.82 36.19-36.19h143.98zm-218.5-195.17c0-12.86 10.47-23.33 23.33-23.33 19.792 0 30.572 23.207 17.87 38.33-14.089 16.842-41.2 6.511-41.2-15zm0 405.34c0-12.871 10.47-23.34 23.33-23.34 19.702 0 30.657 23.148 17.86 38.34-13.961 16.604-41.19 6.712-41.19-15zm428.67 23.33c-21.572 0-31.751-27.189-15-41.2 8.64-7.257 21.278-7.337 30 .01 16.604 13.961 6.712 41.19-15 41.19z"/></svg>