<svg id="Capa_1" enable-background="new 0 0 512 512" height="512" viewBox="0 0 512 512" width="512" xmlns="http://www.w3.org/2000/svg"><g><path d="m455.411 60.663-195-60c-2.875-.884-5.947-.884-8.822 0l-195 60c-6.294 1.937-10.589 7.752-10.589 14.337v152c0 50.333 10.82 96.663 32.16 137.702 17.079 32.844 40.85 62.283 70.65 87.499 50.513 42.742 100.668 58.487 102.778 59.136 1.438.442 2.924.663 4.411.663s2.974-.221 4.411-.663c2.11-.649 52.266-16.395 102.778-59.136 29.801-25.216 53.571-54.655 70.65-87.499 21.342-41.04 32.162-87.369 32.162-137.702v-152c0-6.585-4.295-12.4-10.589-14.337zm-19.411 166.337c0 82.071-30.73 149.891-91.338 201.576-37.675 32.128-75.945 47.873-88.679 52.554-12.61-4.61-50.207-20.026-87.794-51.831-61.173-51.761-92.189-119.825-92.189-202.299v-140.922l180-55.385 180 55.385z"/><path d="m106 242c0 82.278 66.88 150 150 150 83.239 0 150-67.83 150-150 0-82.71-67.29-150-150-150s-150 67.289-150 150zm75 93.6v-11.355c0-5.622 9.769-11.768 25.494-16.039 16.865-4.581 37.209-6.206 49.506-6.206s32.641 1.625 49.506 6.206c15.725 4.271 25.494 10.417 25.494 16.039v11.355c-20.559 16.507-46.644 26.4-75 26.4s-54.441-9.893-75-26.4zm195-93.6c0 24.006-7.091 46.385-19.28 65.162-5.698-10.529-18.141-21.06-43.351-27.907-25.423-6.906-52.25-7.255-57.369-7.255s-31.946.35-57.369 7.255c-25.21 6.847-37.653 17.378-43.351 27.907-12.19-18.777-19.28-41.156-19.28-65.162 0-66.168 53.832-120 120-120s120 53.831 120 120z"/><path d="m316 212c0-33.084-26.916-60-60-60s-60 26.916-60 60 26.916 60 60 60 60-26.916 60-60zm-60 30c-16.542 0-30-13.458-30-30s13.458-30 30-30 30 13.458 30 30-13.458 30-30 30z"/></g></svg>