<svg width="512" height="512" xmlns="http://www.w3.org/2000/svg">

 <g>
  <title>background</title>
  <rect fill="none" id="canvas_background" height="402" width="582" y="-1" x="-1"/>
 </g>
 <g>
  <title>Layer 1</title>
  <g id="svg_1">
   <g id="svg_2">
    <path id="svg_3" d="m504.502,75.496c-9.997,-9.998 -26.205,-9.998 -36.204,0l-306.704,306.707l-117.892,-117.892c-9.997,-9.998 -26.205,-9.997 -36.204,0c-9.998,9.997 -9.998,26.205 0,36.203l135.994,135.992c9.994,9.997 26.214,9.99 36.204,0l324.806,-324.806c9.998,-9.997 9.997,-26.206 0,-36.204z"/>
   </g>
  </g>
  <g id="svg_4"/>
  <g id="svg_5"/>
  <g id="svg_6"/>
  <g id="svg_7"/>
  <g id="svg_8"/>
  <g id="svg_9"/>
  <g id="svg_10"/>
  <g id="svg_11"/>
  <g id="svg_12"/>
  <g id="svg_13"/>
  <g id="svg_14"/>
  <g id="svg_15"/>
  <g id="svg_16"/>
  <g id="svg_17"/>
  <g id="svg_18"/>
  <g id="svg_21">
   <g transform="rotate(0.4702431261539459 347.81738281252177,331.9667968749957) " id="svg_20">
    <g transform="rotate(0.8931933045387268 349.7221069335932,331.6017456054679) " stroke="null" id="svg_23">
     <g stroke="null" id="svg_24">
      <path stroke="null" id="svg_19" d="m493.06418,181.745759c-7.788949,-8.535749 -20.626154,-8.739231 -28.674615,-0.45452l-245.290589,254.174224c75.940177,-49.869066 67.170013,-34.868828 12.052796,45.881424l261.445413,-269.146597c4.023828,-4.141941 6.087814,-9.621636 6.172228,-15.132811c0.042199,-2.755596 -0.410485,-5.519053 -1.360539,-8.127104c-0.950047,-2.608042 -2.397457,-5.060679 -4.344694,-7.194616z"/>
      <path stroke="null" id="svg_22" d="m202.87501,482.51441c7.959004,8.356928 20.797746,8.269255 28.678049,-0.195836l239.33991,-259.70174c-124.787745,85.679719 -98.49194,95.093013 -35.04133,-1.334128l-233.12199,230.774411c-3.939758,4.232123 -5.893168,9.757214 -5.866768,15.268886c0.013208,2.755845 0.521359,5.508326 1.523657,8.094163c1.00229,2.585828 2.498721,5.005012 4.488472,7.094244z"/>
     </g>
    </g>
   </g>
  </g>
 </g>
</svg>