<svg width="80" height="19" viewBox="0 0 80 19" fill="none" xmlns="http://www.w3.org/2000/svg">
<path d="M30.36 1.612C29.371 0.875999 27.324 0.461999 25.967 0.944999C25.967 0.944999 19.366 5.545 15.226 16.309C15.525 12.399 17.71 5.913 17.71 5.913C17.71 5.913 15.594 4.671 15.065 4.303C14.513 3.935 14.352 4.303 14.352 4.303C14.352 4.303 11.523 10.444 8.74 12.836C8.97 11.87 9.2 10.858 9.384 9.984C10.005 7.224 10.787 4.533 10.189 3.866C9.913 3.567 9.384 3.199 8.878 2.9C8.878 2.9 6.555 -0.228001 2.001 3.291C2.001 3.291 -0.575 5.177 0.184 7.04C0.184 7.04 0.437 7.776 3.312 8.949C3.312 8.949 1.403 6.304 5.658 3.061C5.658 3.061 7.199 2.003 7.682 3.061C7.682 3.544 7.613 4.234 7.337 5.131C6.118 8.811 4.945 13.434 5.474 14.745C5.681 15.504 7.521 17.965 8.073 17.574C8.602 17.505 7.659 16.585 9.499 14.814C11.385 12.721 12.673 10.881 13.685 9.248C12.949 12.445 12.259 15.274 12.65 16.309C12.857 16.769 13.501 17.344 14.237 18.149C14.95 18.931 15.801 19 15.801 19C17.894 19 20.102 2.969 30.981 2.969C30.981 2.969 31.326 2.302 30.36 1.612ZM9.913 4.878C9.913 4.878 8.97 10.651 8.303 11.801C7.705 12.928 9.913 4.878 9.913 4.878ZM16.813 6.764C16.813 6.764 15.249 12.468 14.927 13.894C14.674 15.343 15.709 8.719 16.813 6.764ZM29.049 2.785C26.082 2.716 22.839 6.143 22.839 6.143C26.45 1.198 32.039 2.831 29.049 2.785ZM28.4178 12.882C27.3598 14.837 23.2658 19.391 22.4148 17.229C22.2768 16.838 22.2308 16.424 22.2538 15.872C22.2538 15.389 22.2768 14.998 22.3918 14.584C22.5298 14.653 22.6678 14.722 22.8978 14.791C22.8978 14.791 25.2668 15.343 27.4978 12.353C27.4978 12.353 28.9698 10.145 26.4168 9.087C26.0028 8.88 25.5658 8.788 25.5658 8.788C20.7818 9.179 19.9538 13.388 20.0918 15.964C20.2068 18.54 23.1968 18.54 23.1968 18.54C24.5308 18.54 26.7848 17.045 28.7398 14.009C28.7398 14.009 29.0158 12.836 28.4178 12.882ZM23.3808 13.618C23.3808 13.618 24.5308 13.296 25.3588 12.284C26.2098 11.272 25.3588 13.273 23.3808 13.618ZM25.7728 10.95C25.9568 11.594 24.1398 13.388 22.7368 13.618C23.4038 12.215 24.6688 11.41 25.7728 10.95ZM20.8278 12.79C21.7018 9.869 24.5538 9.294 24.5538 9.294C24.5538 9.294 23.1968 9.8 22.2078 10.743C21.3568 11.594 20.8048 12.882 20.8278 12.79ZM58.3014 1.612C57.3124 0.875999 55.2654 0.461999 53.9084 0.944999C53.9084 0.944999 47.3074 5.545 43.1674 16.309C43.4664 12.399 45.6514 5.913 45.6514 5.913C45.6514 5.913 43.5354 4.671 43.0064 4.303C42.4544 3.935 42.2934 4.303 42.2934 4.303C42.2934 4.303 39.4644 10.444 36.6814 12.836C36.9114 11.87 37.1414 10.858 37.3254 9.984C37.9464 7.224 38.7284 4.533 38.1304 3.866C37.8544 3.567 37.3254 3.199 36.8194 2.9C36.8194 2.9 34.4964 -0.228001 29.9424 3.291C29.9424 3.291 27.3664 5.177 28.1254 7.04C28.1254 7.04 28.3784 7.776 31.2534 8.949C31.2534 8.949 29.3444 6.304 33.5994 3.061C33.5994 3.061 35.1404 2.003 35.6234 3.061C35.6234 3.544 35.5544 4.234 35.2784 5.131C34.0594 8.811 32.8864 13.434 33.4154 14.745C33.6224 15.504 35.4624 17.965 36.0144 17.574C36.5434 17.505 35.6004 16.585 37.4404 14.814C39.3264 12.721 40.6144 10.881 41.6264 9.248C40.8904 12.445 40.2004 15.274 40.5914 16.309C40.7984 16.769 41.4424 17.344 42.1784 18.149C42.8914 18.931 43.7424 19 43.7424 19C45.8354 19 48.0434 2.969 58.9224 2.969C58.9224 2.969 59.2674 2.302 58.3014 1.612ZM37.8544 4.878C37.8544 4.878 36.9114 10.651 36.2444 11.801C35.6464 12.928 37.8544 4.878 37.8544 4.878ZM44.7544 6.764C44.7544 6.764 43.1904 12.468 42.8684 13.894C42.6154 15.343 43.6504 8.719 44.7544 6.764ZM56.9904 2.785C54.0234 2.716 50.7804 6.143 50.7804 6.143C54.3914 1.198 59.9804 2.831 56.9904 2.785ZM58.7282 13.066C58.7282 13.066 56.4972 16.217 55.0712 17.022C55.2322 16.125 55.5542 14.929 56.2672 13.687C56.2672 13.687 56.6582 12.79 55.9222 12.123C55.1862 11.433 54.2202 10.674 54.1972 11.042C54.1972 11.042 54.1972 11.18 54.1972 11.479C54.1972 11.479 50.0342 18.379 50.0342 17.045C50.0342 16.999 50.0342 16.999 50.0342 16.953C50.0342 11.962 55.6232 10.145 55.6232 10.145C55.6232 10.145 55.2782 9.639 54.7492 9.133C54.1972 8.65 53.3692 8.489 53.3692 8.489C50.9772 8.489 48.1712 13.089 48.1712 15.711C48.1712 18.701 50.9772 18.379 50.9772 18.379C50.9772 18.379 52.0352 18.471 53.8522 13.434C53.6222 14.308 53.2772 15.412 52.7252 16.677C52.7252 16.677 52.5642 17.321 53.4612 17.873L54.9562 18.425C54.9562 18.425 57.7162 15.964 58.7282 14.4C58.7282 14.4 59.4182 13.135 58.7282 13.066ZM51.2072 10.536C51.2072 10.536 49.6892 12.169 49.5052 12.974C49.2982 13.825 49.4362 11.755 51.2072 10.536ZM67.1081 7.04C67.1311 7.224 65.2911 7.224 63.1521 7.247L63.1981 7.178C63.1981 7.178 63.6581 6.373 63.1981 5.844C62.7381 5.269 60.5071 4.372 60.5071 4.372C60.5071 4.372 60.8061 4.924 60.2311 7.27C58.7821 7.293 57.5631 7.339 57.1721 7.477C56.2751 7.799 56.4131 8.351 56.4131 8.351C56.4131 9.34 57.3791 9.225 57.5171 9.087C57.2641 8.742 58.4141 8.512 59.9321 8.351C59.7021 9.156 59.3801 10.099 58.9431 11.226C58.2991 13.066 57.3791 15.435 57.0341 16.47C57.0341 16.47 56.6891 17.482 57.7931 18.057C58.9201 18.586 59.5411 18.77 59.5411 18.77C59.5411 18.77 62.1171 16.355 63.0371 14.86C63.0371 14.86 63.6811 13.641 63.0141 13.618C63.0141 13.618 60.9671 16.608 59.6561 17.413C59.7941 16.562 60.0701 15.343 60.6911 13.733L62.8531 8.121C64.8311 7.96 66.6251 7.937 66.6251 7.937C66.6251 7.937 67.1311 7.937 67.3611 7.385C67.5451 7.109 67.1081 6.81 67.1081 7.04ZM60.2771 13.963C60.0701 14.63 61.4041 9.455 62.0481 8.765C62.0481 8.765 60.4611 13.319 60.2771 13.963ZM70.2379 13.434C69.1339 15.412 65.1319 19.621 64.2349 17.413C64.1199 17.022 64.0509 16.631 64.0739 16.079C64.0739 12.583 66.7419 11.295 68.3749 10.789C68.4209 10.789 70.1689 10.628 66.5119 12.951C66.5119 12.951 66.4889 13.687 67.3399 13.273C68.1909 12.859 69.3639 11.87 69.5479 11.272C69.7319 10.605 70.4219 8.88 67.5239 8.88V8.903C67.4549 8.88 67.4319 8.88 67.4319 8.88C62.5559 9.271 61.7509 13.549 61.8659 16.171C62.0039 18.793 65.0399 18.724 65.0399 18.724C66.3969 18.724 67.9839 17.919 70.2379 14.722C70.2379 14.722 70.8359 13.388 70.2379 13.434ZM62.4639 13.503C63.4529 10.168 65.8909 9.731 65.8909 9.731C63.5449 10.743 62.4639 13.503 62.4639 13.503ZM79.6997 13.181C79.6997 13.181 77.7217 16.079 76.3877 16.953C76.6177 15.872 77.0777 14.216 77.9747 11.801C77.9747 11.801 78.4807 10.329 77.8137 9.777C77.8137 9.777 76.8247 8.857 75.6747 8.857C75.6747 8.857 74.6857 8.995 72.7537 13.273L75.2837 6.672C75.2837 6.672 75.7437 5.89 75.2837 5.315C74.8007 4.717 72.5927 3.797 72.5927 3.797C72.5927 3.797 73.1907 4.924 71.0057 10.766C70.3387 12.606 69.4417 14.998 69.0967 16.079C69.0967 16.079 68.7287 17.068 69.8557 17.643C70.9827 18.195 71.5807 18.356 71.5807 18.356C71.5807 18.356 75.4447 9.524 75.7897 9.984C75.7207 10.49 75.4907 11.272 75.1227 12.307L73.5587 16.309C73.5587 16.309 73.7887 17.666 76.1807 18.356C76.1807 18.356 78.8027 15.964 79.6997 14.4C79.6997 14.4 80.3437 13.204 79.6997 13.181ZM70.0857 14.446L72.3397 8.052C72.2937 9.685 70.0857 14.446 70.0857 14.446ZM74.3407 15.343L75.9737 10.72C75.9737 12.054 74.3407 15.343 74.3407 15.343Z" fill="white"/>
</svg>
